<?xml version="1.0" standalone="no"?>
<!DOCTYPE svg PUBLIC "-//W3C//DTD SVG 20010904//EN"
 "http://www.w3.org/TR/2001/REC-SVG-20010904/DTD/svg10.dtd">
<svg version="1.0" xmlns="http://www.w3.org/2000/svg"
 width="1240.000000pt" height="1280.000000pt" viewBox="0 0 1240.000000 1280.000000"
 preserveAspectRatio="xMidYMid meet">
<g transform="translate(0.000000,1280.000000) scale(0.100000,-0.100000)"
fill="#000000" stroke="none">
<path d="M1880 12784 c-293 -44 -485 -98 -690 -196 -229 -109 -403 -230 -575
-403 -331 -331 -531 -748 -597 -1250 -28 -212 -9 -459 53 -715 147 -598 543
-1091 1093 -1359 123 -60 344 -140 448 -161 49 -10 77 -24 66 -32 -2 -2 -374
-5 -828 -8 l-825 -5 0 -2090 0 -2090 1105 -5 c1099 -5 1105 -5 1100 -25 -7
-31 -12 -1546 -5 -1584 4 -20 20 -46 42 -66 l36 -33 -129 -209 c-72 -114 -444
-710 -827 -1324 -383 -615 -700 -1124 -703 -1133 -6 -15 47 -16 606 -14 l612
3 883 1340 884 1340 106 3 c79 2 106 -1 110 -10 2 -7 9 -173 15 -368 14 -469
28 -929 40 -1285 5 -159 15 -463 21 -675 6 -212 13 -387 16 -390 2 -2 221 -10
486 -16 265 -7 531 -16 591 -20 l109 -7 -9 959 c-5 527 -9 1150 -9 1384 l0
425 106 3 106 3 911 -1360 912 -1359 242 -6 c134 -3 416 -8 627 -12 l385 -6
-16 23 c-8 13 -136 215 -285 449 -148 234 -529 833 -846 1332 -317 499 -578
912 -579 919 -2 7 14 18 36 24 49 14 84 48 91 88 7 37 1 1552 -5 1582 -5 20 1
20 1225 25 l1230 5 3 275 c1 163 6 278 12 284 7 7 23 -2 48 -26 84 -81 189
-113 347 -106 87 4 111 9 168 36 174 81 246 216 247 463 0 61 3 78 16 83 9 3
144 6 300 6 l284 0 0 103 c0 131 5 139 62 102 136 -91 1641 -1055 1643 -1053
1 2 8 476 15 1053 10 803 10 1168 1 1550 -6 275 -11 701 -11 948 0 321 -3 447
-11 447 -6 0 -384 -241 -840 -536 -501 -324 -835 -534 -844 -530 -11 4 -15 22
-15 66 l0 60 -297 2 -298 3 -6 180 c-8 205 -22 259 -89 344 -88 111 -200 161
-360 161 -130 0 -231 -35 -311 -107 -25 -22 -43 -33 -49 -27 -5 5 -11 97 -12
204 l-3 195 -795 5 c-437 3 -797 6 -799 8 -15 7 26 23 119 47 844 215 1454
934 1540 1814 58 600 -164 1224 -589 1651 -370 370 -859 582 -1425 617 -88 6
-144 0 -376 -37 -649 -105 -1213 -523 -1505 -1115 -149 -302 -215 -586 -215
-925 0 -338 64 -615 210 -915 176 -363 451 -663 788 -862 173 -102 386 -190
564 -233 91 -22 106 -29 87 -41 -8 -5 -990 -9 -2184 -9 -1193 0 -2176 4 -2184
9 -19 12 -7 18 101 45 140 37 260 81 393 146 497 240 873 670 1048 1200 84
252 113 460 104 734 -31 931 -663 1711 -1567 1935 -245 60 -504 81 -680 55z"/>
</g>
</svg>
